<svg xmlns="http://www.w3.org/2000/svg" version="1.1" xmlns:xlink="http://www.w3.org/1999/xlink" xmlns:svgjs="http://svgjs.dev/svgjs" width="1000" height="623" viewBox="0 0 1000 623"><g transform="matrix(1,0,0,1,-0.6060606060606233,0.2522267206477409)"><svg viewBox="0 0 396 247" data-background-color="#ffffff" preserveAspectRatio="xMidYMid meet" height="623" width="1000" xmlns="http://www.w3.org/2000/svg" xmlns:xlink="http://www.w3.org/1999/xlink"><g id="tight-bounds" transform="matrix(1,0,0,1,0.2400000000000091,-0.09999999999999432)"><svg viewBox="0 0 395.52 247.2" height="247.2" width="395.52"><g><svg></svg></g><g><svg viewBox="0 0 395.52 247.2" height="247.2" width="395.52"><g transform="matrix(1,0,0,1,75.54432,87.9165897810219)"><svg viewBox="0 0 244.43135999999998 71.36682043795619" height="71.36682043795619" width="244.43135999999998"><g><svg viewBox="0 0 244.43135999999998 71.36682043795619" height="71.36682043795619" width="244.43135999999998"><g><svg viewBox="0 0 244.43135999999998 71.36682043795619" height="71.36682043795619" width="244.43135999999998"><g><svg viewBox="0 0 244.43135999999998 71.36682043795619" height="71.36682043795619" width="244.43135999999998"><g id="textblocktransform"><svg viewBox="0 0 244.43135999999998 71.36682043795619" height="71.36682043795619" width="244.43135999999998" id="textblock"><g><svg viewBox="0 0 244.43135999999998 71.36682043795619" height="71.36682043795619" width="244.43135999999998"><g transform="matrix(1,0,0,1,0,0)"><svg width="244.43135999999998" viewBox="2.1500000953674316 -37.5 130.13999938964844 38" height="71.36682043795619" data-palette-color="#ca3433"><path d="M6.25 0L5.8 0 5.8-35.1 2.15-35.8 2.15-36.55 7.8-37.5 8.3-37.5 8.3-19.9 8.5-19.9Q10.4-21.5 12.2-22.25 14-23 16-23L16-23Q18.5-23 20.45-21.7 22.4-20.4 23.53-18.03 24.65-15.65 24.65-12.35L24.65-12.35Q24.65-8.25 23.05-5.38 21.45-2.5 18.8-1 16.15 0.5 12.95 0.5L12.95 0.5Q11.65 0.5 10.13-0.05 8.6-0.6 7.3-1.4L7.3-1.4 6.25 0ZM14.65-21.3L14.65-21.3Q12.8-21.3 11.23-20.65 9.65-20 8.3-18.8L8.3-18.8 8.3-2.85Q9.85-1.85 11.35-1.33 12.85-0.8 14.7-0.8L14.7-0.8Q16.7-0.8 18.45-1.85 20.2-2.9 21.25-5.28 22.3-7.65 22.3-11.55L22.3-11.55Q22.3-14.9 21.2-17.07 20.1-19.25 18.35-20.28 16.6-21.3 14.65-21.3ZM34.9 0.5L34.9 0.5Q32.6 0.5 31.05-0.88 29.5-2.25 29.5-4.7L29.5-4.7Q29.5-7.1 31.22-8.7 32.95-10.3 36.95-11.3L36.95-11.3 41.85-12.55 41.85-16.7Q41.85-18.85 40.3-20.18 38.75-21.5 36.75-21.5L36.75-21.5Q34.6-21.5 33.72-20.63 32.85-19.75 32.85-18.25L32.85-18.25 32.85-16.2 32.6-15.95 31.3-15.95Q30.5-15.95 30.25-16.2 30-16.45 30-17.15L30-17.15Q30-18.1 30.65-19.1 31.3-20.1 32.55-20.9L32.55-20.9Q33.9-21.75 35.27-22.38 36.65-23 37.9-23L37.9-23Q40.9-23 42.62-21.68 44.35-20.35 44.35-17.55L44.35-17.55 44.35-2Q44.75-1.65 45.27-1.45 45.8-1.25 46.5-1.25L46.5-1.25 49.1-1.25 49.15-1.2 49.15-1.1Q48.8-0.6 48-0.05 47.2 0.5 45.85 0.5L45.85 0.5Q44.1 0.5 43.15-0.4 42.2-1.3 42-2.5L42-2.5 41.9-2.5Q40.6-1.2 38.77-0.35 36.95 0.5 34.9 0.5ZM32-5.6L32-5.6Q32-3.55 33.15-2.53 34.3-1.5 36.4-1.5L36.4-1.5Q37.65-1.5 39.1-1.88 40.55-2.25 41.85-3.05L41.85-3.05 41.85-11.5Q37.7-10.65 35.57-9.8 33.45-8.95 32.72-7.95 32-6.95 32-5.6ZM58.8 0.5L58.8 0.5Q57.05 0.5 55.67 0.13 54.3-0.25 52.85-0.95L52.85-0.95 52.85-6.15 53.45-6.15 54.15-3.9Q54.6-2.4 55.8-1.53 57-0.65 59.2-0.65L59.2-0.65Q61.6-0.65 62.92-1.83 64.25-3 64.25-5.2L64.25-5.2Q64.25-7.15 63.2-8.28 62.15-9.4 59.3-10.55L59.3-10.55Q56.3-11.75 54.87-13.15 53.45-14.55 53.45-17.15L53.45-17.15Q53.45-18.75 54.32-20.08 55.2-21.4 56.65-22.2 58.1-23 59.75-23L59.75-23Q61.6-23 63.05-22.58 64.5-22.15 65.55-21.6L65.55-21.6 65.55-16.5 64.95-16.5 64.3-18.65Q63.8-20.4 62.42-21.15 61.05-21.9 59.65-21.9L59.65-21.9Q57.7-21.9 56.67-20.75 55.65-19.6 55.65-17.75L55.65-17.75Q55.65-15.9 56.75-14.85 57.85-13.8 60.3-12.8L60.3-12.8Q62.5-11.9 63.87-11.05 65.25-10.2 65.9-8.97 66.55-7.75 66.55-5.85L66.55-5.85Q66.55-4.15 65.6-2.7 64.65-1.25 62.9-0.38 61.15 0.5 58.8 0.5ZM83.29 0.5L83.29 0.5Q79.74 0.5 77.32-1 74.89-2.5 73.67-5.05 72.44-7.6 72.44-10.8L72.44-10.8Q72.44-14.2 73.87-16.95 75.29-19.7 77.62-21.35 79.94-23 82.69-23L82.69-23Q86.64-23 88.89-20.4 91.14-17.8 91.49-13.2L91.49-13.2 91.34-13.05 74.99-13.05Q74.94-12.3 74.94-11.45L74.94-11.45Q74.94-7.05 77.32-4.33 79.69-1.6 83.99-1.6L83.99-1.6Q86.34-1.6 88.27-2.3 90.19-3 91.29-4.2L91.29-4.2 91.44-4.2 91.44-3.55Q90.34-1.8 88.22-0.65 86.09 0.5 83.29 0.5ZM82.09-21.9L82.09-21.9Q79.64-21.9 77.69-19.88 75.74-17.85 75.14-14.15L75.14-14.15 88.74-14.15Q88.24-17.8 86.69-19.85 85.14-21.9 82.09-21.9ZM105.79 0L96.59 0 96.59-0.75 99.74-1.6 99.74-20.6 96.09-21.05 96.09-21.8 101.49-23 101.99-23 102.19-19.4 102.34-19.4Q104.09-21.2 105.64-22.1 107.19-23 109.04-23L109.04-23Q111.14-23 112.74-22.1 114.34-21.2 115.14-19.4L115.14-19.4 115.24-19.4Q117.04-21.25 118.64-22.13 120.24-23 122.19-23L122.19-23Q125.24-23 127.19-21.25 129.14-19.5 129.14-16.15L129.14-16.15 129.14-1.6 132.29-0.75 132.29 0 123.09 0 123.09-0.75 126.64-1.6 126.64-14.8Q126.64-17.85 125.07-19.43 123.49-21 120.99-21L120.99-21Q119.64-21 118.07-20.38 116.49-19.75 115.44-18.55L115.44-18.55Q115.74-17.45 115.74-16.15L115.74-16.15 115.74-1.6 118.89-0.75 118.89 0 109.69 0 109.69-0.75 113.24-1.6 113.24-14.8Q113.24-17.85 111.74-19.43 110.24-21 107.84-21L107.84-21Q106.44-21 104.84-20.28 103.24-19.55 102.24-18.25L102.24-18.25 102.24-1.6 105.79-0.75 105.79 0Z" opacity="1" transform="matrix(1,0,0,1,0,0)" fill="#ca3433" class="undefined-text-0" data-fill-palette-color="primary" id="text-0"></path></svg></g></svg></g></svg></g></svg></g></svg></g></svg></g></svg></g><g><path d="M0 123.6c0-68.262 55.338-123.6 123.6-123.6 52.723 0 97.737 33.011 115.498 79.493l-3.453 0c-17.597-44.665-61.13-76.275-112.045-76.275-66.485 0-120.382 53.897-120.382 120.382 0 66.485 53.897 120.382 120.382 120.382 50.915 0 94.448-31.609 112.045-76.275l3.453 0c-17.761 46.481-62.774 79.493-115.498 79.493-68.262 0-123.6-55.338-123.6-123.6z" fill="#ca3433" stroke="transparent" data-fill-palette-color="tertiary"></path></g></svg></g><defs></defs></svg><rect width="395.52" height="247.2" fill="none" stroke="none" visibility="hidden"></rect></g></svg></g></svg>